<svg id="Capa_1" data-name="Capa 1" xmlns="http://www.w3.org/2000/svg" viewBox="0 0 657.1 901.39"><defs><style>.cls-1{fill:#333;}.cls-2{fill:#1e1c15;}.cls-3{font-size:126.93px;font-family:CenturyGothic-Bold, Century Gothic;font-weight:700;}.cls-3,.cls-8{fill:#fff;}.cls-4{fill:#999;}.cls-5{fill:#ccc;}.cls-6{fill:#e67717;}.cls-7{fill:none;stroke:#f93;stroke-miterlimit:10;stroke-width:2px;}</style></defs><title>carta-menu</title><rect class="cls-1" y="118.69" width="657.1" height="782.7"/><polygon class="cls-2" points="487.77 0 452 7.4 0.55 119.22 484.79 119.22 487.77 0"/><text class="cls-3" transform="translate(143.49 322.3) scale(1.05 1)">MENU</text><ellipse class="cls-4" cx="327.99" cy="647.54" rx="35.46" ry="33.85"/><path class="cls-5" d="M534.56,818.32H498c0-.35,0-.7,0-1.06,0-90-76.4-162.89-170.65-162.89S156.7,727.3,156.7,817.26c0,.36,0,.71,0,1.06H131.21" transform="translate(0.1 -4.72)"/><rect class="cls-6" x="108.59" y="813.07" width="452.1" height="19.04" rx="1.33" ry="1.33"/><path class="cls-7" d="M248.41,647.46c-7.63,2.5-23.6-3.75-28.41-12.36-35.66-63.9-.65-154.6-41.33-107" transform="translate(0.1 -4.72)"/><path class="cls-7" d="M249.46,646.35c-9.79,3.66-24.6-3.3-28.41-12.36-27.8-66.12-5.3-144.23-41.33-107" transform="translate(0.1 -4.72)"/><path class="cls-7" d="M406.58,652.1c7.4,3,23.84-2,29.33-10.22,40.74-61.07,13.2-154.09,49.9-103.66" transform="translate(0.1 -4.72)"/><path class="cls-7" d="M405.62,650.91c9.46,4.38,24.8-1.47,29.33-10.21C468,576.83,452,497.3,484.86,537" transform="translate(0.1 -4.72)"/><path class="cls-7" d="M350.34,596.05c-6.1,1-17.35-5.71-19.83-12.8-18.43-52.64,20.14-117-17-85.95" transform="translate(0.1 -4.72)"/><path class="cls-7" d="M351.28,595.33c-7.89,1.58-18.16-5.48-19.83-12.79-12.19-53.37,15.24-109.68-17-85.95" transform="translate(0.1 -4.72)"/><rect class="cls-8" x="116.9" y="337.1" width="428.83" height="16.92"/></svg>