<svg id="Capa_1" data-name="Capa 1" xmlns="http://www.w3.org/2000/svg" viewBox="0 0 870.03 810"><defs><style>.cls-1{fill:#0a8d76;}.cls-2{fill:#ff4f00;}</style></defs><title>logo</title><path class="cls-1" d="M828.3,17.56a891.25,891.25,0,0,0-261.69,51c-102.78,36.63-183.17,86.34-240.3,128.55,6.06,32.94,64.56,264.75,242.42,399.9,61.74,46.91,133.51,60.66,170.72,47.35C779.6,630,861.9,543.62,878.2,397.26,899.16,209.06,843.84,49.94,828.3,17.56Z" transform="translate(-12.85 -17.56)"/><path d="M691.37,505.83c53.36-19.09,105.45-11.67,128.71,15.48a72.14,72.14,0,0,0-3-25c-14.37-47.26-75.11-68-135.67-46.34s-98,77.54-83.66,124.8a69.17,69.17,0,0,0,3.12,8.3C613,552.07,646.75,521.79,691.37,505.83Z" transform="translate(-12.85 -17.56)"/><path d="M715,168c-23.34,8.35-46.41,9.47-64.82,4.54.11.37.2.74.31,1.11,14.37,47.26,58.23,74,98,59.83s60.32-64.06,46-111.31a101.74,101.74,0,0,0-11-24.42C780.51,125.18,753.42,154.22,715,168Z" transform="translate(-12.85 -17.56)"/><path d="M484.37,248.07c-24.4,3.74-47.52.47-65.17-7.84.06.39.1.77.16,1.15,7.74,48.94,47.7,83.43,89.25,77.05s68.95-51.23,61.2-100.16a104.6,104.6,0,0,0-7.61-26C555.56,218.61,524.55,241.89,484.37,248.07Z" transform="translate(-12.85 -17.56)"/><path class="cls-2" d="M584.7,348A979.47,979.47,0,0,0,327.51,240.13,968.39,968.39,0,0,0,49.16,209.94C37.5,241.2-30.57,470.35,56.57,686.85,86.81,762,143,815,182.72,825.21c42.83,11,160-14.33,250-128.32C548.35,550.31,581.69,384.28,584.7,348Z" transform="translate(-12.85 -17.56)"/><path d="M224.93,686.16c-56.93-14.68-99.05-51-105.56-87.27a68,68,0,0,0-10.28,22.75c-11.72,48.13,31.15,100.64,95.76,117.3s126.5-8.85,138.23-57a67,67,0,0,0,1.53-8.8C317.93,692.35,272.53,698.43,224.93,686.16Z" transform="translate(-12.85 -17.56)"/><path d="M182.79,383c24.89,6.42,45.82,18.78,59.52,33.55.09-.37.2-.74.3-1.12,11.72-48.12-13.15-96-55.55-106.92s-86.28,19.21-98,67.33a100.86,100.86,0,0,0-2.85,26.95C102.88,381.28,141.78,372.42,182.79,383Z" transform="translate(-12.85 -17.56)"/><path d="M427.57,448.44c23.45,10.91,42.17,27,53.44,44.18.15-.35.31-.7.46-1.06,18.43-45.71,1-97.83-39-116.41s-87.27,3.43-105.7,49.14a101.39,101.39,0,0,0-6.69,26.28C349.56,432.22,388.94,430.48,427.57,448.44Z" transform="translate(-12.85 -17.56)"/></svg>