<svg id="Capa_1" data-name="Capa 1" xmlns="http://www.w3.org/2000/svg" viewBox="0 0 131.32 212.32"><defs><style>.cls-1{fill:#ffffe0;}.cls-2{fill:#fff;}.cls-3{fill:#ab0500;}</style></defs><title>palomitas</title><path class="cls-1" d="M131,36.71c0-7.13-6.14-12.92-13.72-12.92a14.13,14.13,0,0,0-10,4,2.44,2.44,0,0,0,0-.27,12.8,12.8,0,0,0-6.76-11.13c-.5-6.71-6.44-12-13.69-12A13.91,13.91,0,0,0,75,10.88a13.91,13.91,0,0,0-11.4,5.8,14.27,14.27,0,0,0-7.39-2A13.53,13.53,0,0,0,42.68,25.17a13.77,13.77,0,0,0-12.62-7.83c-7.58,0-13.73,5.78-13.73,12.91a12.43,12.43,0,0,0,3.39,8.49,12.75,12.75,0,0,0-6.35,10.89c0,7.13,6.15,12.91,13.73,12.91A14.3,14.3,0,0,0,34,60.79c1,6.18,6.71,10.9,13.56,10.9S60,67,61.08,60.93a14.41,14.41,0,0,0,6.34,1.61A13.88,13.88,0,0,0,79.3,69a14,14,0,0,0,10.51-4.61,14.08,14.08,0,0,0,25.29-1.26,14.49,14.49,0,0,0,12.66-.94,14.76,14.76,0,0,0,3.21.35c7.58,0,13.73-5.78,13.73-12.91S138.55,36.71,131,36.71Z" transform="translate(-13.37 -4.42)"/><path class="cls-2" d="M30.6,216.2Q22.26,134.93,13.91,53.66C33.83,52.32,55.36,50.94,77.15,51c23.33,0,46.29,1.35,67.55,2.69Q136.35,134.93,128,216.2q-25,.56-51.13.54Q53.33,216.71,30.6,216.2Z" transform="translate(-13.37 -4.42)"/><polygon class="cls-3" points="54.36 212.32 30.68 212.05 18.03 48.17 49.78 46.82 54.36 212.32"/><polygon class="cls-3" points="102.53 47.63 69.7 46.55 68.62 212.32 93.11 212.32 102.53 47.63"/><polygon class="cls-3" points="114.64 211.78 110.06 211.78 124.86 48.98 131.32 49.24 114.64 211.78"/></svg>