<svg id="Capa_1" data-name="Capa 1" xmlns="http://www.w3.org/2000/svg" viewBox="0 0 653.47 673.46"><defs><style>.cls-1{fill:#ff4f00;}.cls-2{fill:#0a8d76;}.cls-3{fill:#ffc78b;}.cls-4{fill:#b3360d;}.cls-5{fill:#ac0067;}.cls-6{fill:#534741;}.cls-7{fill:#7a0017;}.cls-8{fill:#fff;}.cls-9{font-size:116.4px;font-family:CenturyGothic-BoldItalic, Century Gothic;font-weight:700;font-style:italic;}</style></defs><title>reportera</title><path class="cls-1" d="M657,691.37C633.29,521.94,522.69,393.74,389.81,393.74s-243.49,128.2-267.2,297.63Z" transform="translate(-3.53 -43.44)"/><polygon class="cls-2" points="386.27 546.27 451.19 350.3 321.36 350.3 386.27 546.27"/><circle class="cls-3" cx="386.27" cy="208.22" r="166.58"/><polygon class="cls-4" points="238.07 536.48 201.32 647.93 236.84 647.93 238.07 536.48"/><polygon class="cls-4" points="541.83 536.48 578.57 647.94 543.05 647.94 541.83 536.48"/><path class="cls-5" d="M388.58,43.44c-124.13,0-211.9,64.49-211.9,188.62,0,91.89,42.9,167.82,121.89,202.66L259.4,254A21.11,21.11,0,0,1,280,228.39H437.76l13.6-62.3,11.93,61.07,39.2-2.45c11.51,0,21.08,14.25,18.75,25.52L483.41,433.1c77.06-35.63,117.07-124,117.07-214.51C600.48,94.46,512.71,43.44,388.58,43.44Z" transform="translate(-3.53 -43.44)"/><path class="cls-6" d="M205.08,550.93l-37.53-36.65c-9.41-9.18-23.49-9.61-30.64-.93L7.5,670.55c-6.45,7.83-4.88,20.31,3.61,28.6l10.83,10.58c8.41,8.21,20.8,9.55,28.5,3.07L206.56,581.68C215.24,574.39,214.56,560.19,205.08,550.93Z" transform="translate(-3.53 -43.44)"/><ellipse class="cls-7" cx="273.49" cy="443.53" rx="90.1" ry="80.33" transform="translate(-238.45 285.91) rotate(-45.68)"/><rect class="cls-2" x="103.75" y="427.34" width="214.48" height="158.38" rx="9.65" ry="9.65" transform="translate(410.38 -46.73) rotate(44.32)"/><rect class="cls-8" x="127.62" y="444.78" width="165.1" height="121.92" rx="7.43" ry="7.43" transform="translate(409.59 -46.38) rotate(44.32)"/><text class="cls-9" transform="matrix(0.72, 0.7, -0.7, 0.72, 147.75, 457.84)">N</text></svg>